<svg id="SvgjsSvg1015" width="370.48749999999995" height="158.81055013574684" xmlns="http://www.w3.org/2000/svg" version="1.1" xmlns:xlink="http://www.w3.org/1999/xlink" xmlns:svgjs="http://svgjs.com/svgjs"><defs id="SvgjsDefs1016"></defs><g id="SvgjsG1017" transform="scale(1.1006497431231068)" opacity="1" stroke="none" fill="#000000" stroke-width="1px"><g id="SvgjsG1018" class="SJZpaUdqZm" transform="translate(0, 0) scale(1.4428800000000002)" light-content="false" fill="#121212" stroke="none" stroke-width="1px"><path d="M0 0v100h100V0H0zm98 98H2V2h96v96z" fill-rule="evenodd" stroke="none" fill="#121212" stroke-width="1px"></path></g><g id="SvgjsG1019" class="text" transform="translate(34.324003404617315, 94.15400022888184)" light-content="false" fill="#121212" stroke="none" stroke-width="1px"><path d="M36.77 -40.18L36.77 -44.02L1.05 -44.02L1.05 -40.18L16.74 -40.18L16.74 0L21.08 0L21.08 -40.18Z M74.59 -40.18L74.59 -44.02L38.87 -44.02L38.87 -40.18L54.56 -40.18L54.56 0L58.9 0L58.9 -40.18Z" stroke="none" fill="#121212" stroke-width="1px"></path></g><g id="SvgjsG1020" class="text" transform="translate(166.2680000190735, 64.84399885559083)" light-content="false" fill="#121212" stroke="none" stroke-width="1px"><path d="M35.58 -38.88L35.58 -42.6L1.02 -42.6L1.02 -38.88L16.2 -38.88L16.2 0L20.4 0L20.4 -38.88Z M41.94 0L46.14 0L46.14 -15.72L58.74 -15.72L68.76 0L73.5 0L63.06 -16.44C64.5 -16.72 65.8 -17.25 66.96 -18.03C68.12 -18.81 69.11 -19.77 69.93 -20.91C70.75 -22.05 71.39 -23.33 71.85 -24.75C72.31 -26.17 72.54 -27.66 72.54 -29.22C72.54 -30.86 72.23 -32.48 71.61 -34.08C70.99 -35.68 70.12 -37.11 69 -38.37C67.88 -39.63 66.55 -40.65 65.01 -41.43C63.47 -42.21 61.78 -42.6 59.94 -42.6L41.94 -42.6ZM46.14 -19.44L46.14 -38.88L59.7 -38.88C60.86 -38.88 61.97 -38.62 63.03 -38.1C64.09 -37.58 65.01 -36.88 65.79 -36C66.57 -35.12 67.19 -34.09 67.65 -32.91C68.11 -31.73 68.34 -30.5 68.34 -29.22C68.34 -27.94 68.14 -26.72 67.74 -25.56C67.34 -24.4 66.78 -23.36 66.06 -22.44C65.34 -21.52 64.47 -20.79 63.45 -20.25C62.43 -19.71 61.3 -19.44 60.06 -19.44Z M81.12 0L85.32 0L85.32 -42.6L81.12 -42.6Z M96 0L100.2 0L100.2 -15.72L114 -15.72C115.84 -15.72 117.51 -16.1 119.01 -16.86C120.51 -17.62 121.8 -18.62 122.88 -19.86C123.96 -21.1 124.8 -22.53 125.4 -24.15C126 -25.77 126.3 -27.46 126.3 -29.22C126.3 -30.86 125.98 -32.48 125.34 -34.08C124.7 -35.68 123.82 -37.11 122.7 -38.37C121.58 -39.63 120.25 -40.65 118.71 -41.43C117.17 -42.21 115.48 -42.6 113.64 -42.6L96 -42.6ZM100.2 -19.44L100.2 -38.88L113.46 -38.88C114.62 -38.88 115.73 -38.63 116.79 -38.13C117.85 -37.63 118.77 -36.94 119.55 -36.06C120.33 -35.18 120.95 -34.15 121.41 -32.97C121.87 -31.79 122.1 -30.54 122.1 -29.22C122.1 -27.94 121.9 -26.71 121.5 -25.53C121.1 -24.35 120.54 -23.31 119.82 -22.41C119.1 -21.51 118.23 -20.79 117.21 -20.25C116.19 -19.71 115.06 -19.44 113.82 -19.44Z" stroke="none" fill="#121212" stroke-width="1px"></path></g><g id="SvgjsG1021" class="text" transform="translate(166.2680000190735, 121.68399900817872)" light-content="false" fill="#121212" stroke="none" stroke-width="1px"><path d="M35.58 -38.88L35.58 -42.6L1.02 -42.6L1.02 -38.88L16.2 -38.88L16.2 0L20.4 0L20.4 -38.88Z M41.94 0L46.14 0L46.14 -15.72L58.74 -15.72L68.76 0L73.5 0L63.06 -16.44C64.5 -16.72 65.8 -17.25 66.96 -18.03C68.12 -18.81 69.11 -19.77 69.93 -20.91C70.75 -22.05 71.39 -23.33 71.85 -24.75C72.31 -26.17 72.54 -27.66 72.54 -29.22C72.54 -30.86 72.23 -32.48 71.61 -34.08C70.99 -35.68 70.12 -37.11 69 -38.37C67.88 -39.63 66.55 -40.65 65.01 -41.43C63.47 -42.21 61.78 -42.6 59.94 -42.6L41.94 -42.6ZM46.14 -19.44L46.14 -38.88L59.7 -38.88C60.86 -38.88 61.97 -38.62 63.03 -38.1C64.09 -37.58 65.01 -36.88 65.79 -36C66.57 -35.12 67.19 -34.09 67.65 -32.91C68.11 -31.73 68.34 -30.5 68.34 -29.22C68.34 -27.94 68.14 -26.72 67.74 -25.56C67.34 -24.4 66.78 -23.36 66.06 -22.44C65.34 -21.52 64.47 -20.79 63.45 -20.25C62.43 -19.71 61.3 -19.44 60.06 -19.44Z M81.12 0L85.32 0L85.32 -42.6L81.12 -42.6Z M93.18 -21.6C93.18 -18.88 93.67 -16.21 94.65 -13.59C95.63 -10.97 97 -8.63 98.76 -6.57C100.52 -4.51 102.62 -2.84 105.06 -1.56C107.5 -0.28 110.18 0.36 113.1 0.36C114.74 0.36 116.41 0.14 118.11 -0.3C119.81 -0.74 121.42 -1.38 122.94 -2.22C124.46 -3.06 125.84 -4.09 127.08 -5.31C128.32 -6.53 129.28 -7.94 129.96 -9.54L126.48 -11.34C125.8 -9.94 124.96 -8.75 123.96 -7.77C122.96 -6.79 121.87 -5.97 120.69 -5.31C119.51 -4.65 118.29 -4.17 117.03 -3.87C115.77 -3.57 114.54 -3.42 113.34 -3.42C111.06 -3.42 108.95 -3.91 107.01 -4.89C105.07 -5.87 103.39 -7.19 101.97 -8.85C100.55 -10.51 99.43 -12.42 98.61 -14.58C97.79 -16.74 97.38 -19 97.38 -21.36C97.38 -23.52 97.72 -25.65 98.4 -27.75C99.08 -29.85 100.09 -31.74 101.43 -33.42C102.77 -35.1 104.42 -36.46 106.38 -37.5C108.34 -38.54 110.6 -39.06 113.16 -39.06C114.32 -39.06 115.5 -38.93 116.7 -38.67C117.9 -38.41 119.06 -37.98 120.18 -37.38C121.3 -36.78 122.35 -36 123.33 -35.04C124.31 -34.08 125.14 -32.9 125.82 -31.5L129.12 -33.54C127.84 -36.3 125.85 -38.54 123.15 -40.26C120.45 -41.98 117.2 -42.84 113.4 -42.84C110.2 -42.84 107.34 -42.21 104.82 -40.95C102.3 -39.69 100.18 -38.06 98.46 -36.06C96.74 -34.06 95.43 -31.79 94.53 -29.25C93.63 -26.71 93.18 -24.16 93.18 -21.6Z M137.16 0L141.36 0L141.36 -13.08L149.4 -21.42L165.72 0L170.34 0L152.04 -23.88L169.44 -42.6L164.82 -42.6L141.36 -17.82L141.36 -42.54L137.16 -42.54Z" stroke="none" fill="#121212" stroke-width="1px"></path></g></g></svg>